<?xml version="1.0" encoding="UTF-8"?>
<!DOCTYPE svg PUBLIC "-//W3C//DTD SVG 1.1//EN" "http://www.w3.org/Graphics/SVG/1.1/DTD/svg11.dtd">
<!-- Creator: CorelDRAW X7 -->
<svg xmlns="http://www.w3.org/2000/svg" xml:space="preserve" width="24.9428mm" height="5.7391mm" version="1.1" style="shape-rendering:geometricPrecision; text-rendering:geometricPrecision; image-rendering:optimizeQuality; fill-rule:evenodd; clip-rule:evenodd"
viewBox="0 0 87 20"
 xmlns:xlink="http://www.w3.org/1999/xlink">
 <defs>
  <style type="text/css">
   <![CDATA[
    .fil0 {fill:black;fill-rule:nonzero}
   ]]>
  </style>
 </defs>
 <g id="Layer_x0020_1">
  <metadata id="CorelCorpID_0Corel-Layer"/>
  <path class="fil0" d="M0 20l5 0 0 -6 0 0c3,0 7,-2 7,-7l0 0c0,-5 -3,-7 -7,-7l-5 0 0 20zm44 0l5 0 0 -11c0,0 0,0 0,0 1,0 1,0 1,0l0 11 5 0 0 -12c0,-2 -1,-4 -3,-4 -2,0 -3,1 -3,2l0 -1 -5 0 0 15zm25 -16l5 0 0 -4 -5 0 0 4zm0 16l5 0 0 -15 -5 0 0 15zm-34 0c1,0 2,-1 3,-2l0 2 5 0 0 -10c0,-9 -13,-6 -14,-3l0 -2 -5 0 0 15 5 0 0 -6c0,-5 9,-7 9,-3l0 0c-1,-1 -2,-1 -3,-1 -2,0 -4,2 -4,5l0 0c0,3 2,5 4,5zm2 -3c-1,0 -1,-1 -1,-2l0 0c0,-1 0,-2 1,-2 0,0 0,0 1,0l0 2c0,1 -1,2 -1,2zm25 3c3,0 6,-2 6,-7l0 -2c0,-4 -3,-7 -6,-7 -4,0 -6,3 -6,7l0 2c0,5 2,7 6,7zm0 -4c-1,0 -1,-1 -1,-3l0 -2c0,-2 0,-3 1,-3 1,0 1,1 1,3l0 2c0,2 0,3 -1,3zm17 4c1,0 2,-1 3,-2l0 2 5 0 0 -20 -5 0 0 6c-1,-1 -2,-2 -3,-2 -2,0 -4,2 -4,7l0 2c0,6 2,7 4,7zm2 -4c-1,0 -1,-1 -1,-3l0 -2c0,-2 0,-3 1,-3 0,0 1,1 1,3l0 2c0,2 -1,3 -1,3zm-66 4c1,0 2,-1 3,-2l0 2 5 0 0 -10c0,-2 0,-3 -1,-4 -1,-1 -3,-2 -5,-2 -2,0 -3,1 -4,1l0 4c1,0 2,0 3,0 1,0 2,0 2,2l0 0c-1,-1 -1,-1 -2,-1 -2,0 -4,2 -4,5l0 0c0,3 1,5 3,5zm2 -3c0,0 -1,-1 -1,-2l0 0c0,-1 1,-2 1,-2 1,0 1,0 1,0l0 2c0,1 0,2 -1,2zm-12 -7l0 -5 0 0c1,0 2,0 2,2l0 1c0,1 -1,2 -2,2l0 0z"/>
 </g>
</svg>
